<mxfile host="app.diagrams.net" modified="2022-05-17T14:27:36.453Z" agent="5.0 (Macintosh)" etag="m6Xv3HJtYfL7z_24m5So" version="18.0.6" type="github">
  <diagram id="YEp18ltaeCoRHwWzT_YQ" name="Page-1">
    <mxGraphModel dx="946" dy="615" grid="1" gridSize="10" guides="1" tooltips="1" connect="1" arrows="1" fold="1" page="1" pageScale="1" pageWidth="850" pageHeight="1100" math="0" shadow="0">
      <root>
        <mxCell id="0" />
        <mxCell id="1" parent="0" />
        <mxCell id="6uCbzYb709cX_wfN3wCf-1" value="" style="whiteSpace=wrap;html=1;aspect=fixed;" parent="1" vertex="1">
          <mxGeometry x="120" y="150" width="470" height="470" as="geometry" />
        </mxCell>
      </root>
    </mxGraphModel>
  </diagram>
</mxfile>
